<svg id="Layer_1" data-name="Layer 1" xmlns="http://www.w3.org/2000/svg" viewBox="0 0 978.5 68.22"><defs><style>.cls-1{fill:#cfcfcf;}</style></defs><title>name-logo3</title><path class="cls-1" d="M63.41,429.62v-2.8l6-.51V381.09l-5.81-.69v-2.8h17v2.8l-6.19.69v20.06h27.69V381.09l-5.91-.69v-2.8H113v2.8l-5.85.69v45.25l5.85.48v2.8H96.12v-2.8l6-.48v-21.7H74.45v21.7l6.26.48v2.8Z" transform="translate(-63.41 -372.3)"/><path class="cls-1" d="M137.06,430.41a16.28,16.28,0,0,1-7.19-1.51,14.59,14.59,0,0,1-5.25-4.22,18.7,18.7,0,0,1-3.19-6.46,29.64,29.64,0,0,1-1.08-8.25,23.77,23.77,0,0,1,1.35-8.19,19.83,19.83,0,0,1,3.74-6.41,16.77,16.77,0,0,1,12.68-5.67q6.09,0,9.56,3.55t3.67,10.33c0,1.29,0,2.42,0,3.38a12.19,12.19,0,0,1-.32,2.53H125.61v.58a3.6,3.6,0,0,0,0,.58,23.3,23.3,0,0,0,1.18,7.16,15.42,15.42,0,0,0,2.82,5.09,11,11,0,0,0,4,3,12.21,12.21,0,0,0,4.89,1,15.87,15.87,0,0,0,3.09-.31,21.48,21.48,0,0,0,3.06-.82,18.88,18.88,0,0,0,2.73-1.19,10.56,10.56,0,0,0,2.09-1.44l1,2.32a13.06,13.06,0,0,1-2.52,1.94,21,21,0,0,1-3.3,1.57,23.92,23.92,0,0,1-3.76,1A20.9,20.9,0,0,1,137.06,430.41Zm-.27-37.22a12,12,0,0,0-4.17.7,8.38,8.38,0,0,0-3.37,2.29,12.26,12.26,0,0,0-2.37,4.1,22.08,22.08,0,0,0-1.16,6.17h20.09q.08-.79.12-1.59c0-.54,0-1.07,0-1.59a14.86,14.86,0,0,0-.52-4.07A8.62,8.62,0,0,0,143.8,396a7.67,7.67,0,0,0-2.86-2.08A10.36,10.36,0,0,0,136.79,393.19Z" transform="translate(-63.41 -372.3)"/><path class="cls-1" d="M157.63,429.62v-2.8l6.36-.48v-50l-6.15-.65v-2.29l9.84-1.13h0l1.19.86v53.18l6.8.48v2.8Z" transform="translate(-63.41 -372.3)"/><path class="cls-1" d="M180.87,429.62v-2.8l6.36-.48v-50l-6.16-.65v-2.29l9.85-1.13h0l1.2.86v53.18l6.8.48v2.8Z" transform="translate(-63.41 -372.3)"/><path class="cls-1" d="M204.38,409.9a22,22,0,0,1,1.54-8.46,19.91,19.91,0,0,1,4.05-6.36,17.67,17.67,0,0,1,5.69-4,16.15,16.15,0,0,1,6.49-1.38,17.57,17.57,0,0,1,8,1.67,14.56,14.56,0,0,1,5.32,4.52,18.94,18.94,0,0,1,2.94,6.54,32.9,32.9,0,0,1,.9,7.78,22.22,22.22,0,0,1-1.53,8.46,20.21,20.21,0,0,1-4.05,6.35,17.45,17.45,0,0,1-5.71,4,16.12,16.12,0,0,1-6.51,1.39,17.39,17.39,0,0,1-8-1.68,14.55,14.55,0,0,1-5.3-4.51,18.9,18.9,0,0,1-2.94-6.55A32.81,32.81,0,0,1,204.38,409.9Zm17.43,16.92a11.66,11.66,0,0,0,5-1,10,10,0,0,0,3.76-3.1,15.2,15.2,0,0,0,2.38-5.09,27.2,27.2,0,0,0,.83-7.08,32.69,32.69,0,0,0-.63-6.54,17.77,17.77,0,0,0-2-5.49,11,11,0,0,0-3.67-3.79,10.27,10.27,0,0,0-5.54-1.4,11.73,11.73,0,0,0-5,1,10,10,0,0,0-3.74,3.08,15,15,0,0,0-2.37,5.09,26.88,26.88,0,0,0-.84,7.11,33.23,33.23,0,0,0,.63,6.6,17.42,17.42,0,0,0,2,5.48,10.78,10.78,0,0,0,3.68,3.76A10.23,10.23,0,0,0,221.81,426.82Z" transform="translate(-63.41 -372.3)"/><path class="cls-1" d="M249.66,423.3a4.48,4.48,0,0,1,3.28,1.57,5.1,5.1,0,0,1,1.5,3.62,11.67,11.67,0,0,1-1.81,6,13.84,13.84,0,0,1-4,4.56,8.7,8.7,0,0,1-2.73,1.5c-.39,0-.59-.24-.59-.71,0-.19.24-.41.72-.69a10.08,10.08,0,0,0,3.18-3.14,7.9,7.9,0,0,0,1.57-4.55,1.24,1.24,0,0,0-1.3-1.37,3.79,3.79,0,0,1-2.83-1.19,3.3,3.3,0,0,1-.79-2,3.58,3.58,0,0,1,1-2.46A3.63,3.63,0,0,1,249.66,423.3Z" transform="translate(-63.41 -372.3)"/><path class="cls-1" d="M284.54,429.62v-2.8l7-.48V381.12l-7-.72v-2.8h19.08v2.8l-7,.69v45.25l7,.48v2.8Z" transform="translate(-63.41 -372.3)"/><path class="cls-1" d="M314.17,384.23a4,4,0,0,1,2.82,1.15,3.82,3.82,0,0,1,1.21,2.92q0,3.34-3.53,6.34t-4.53,3c-.44,0-.65-.19-.65-.58,0-.21.78-1,2.36-2.26q2.63-2.19,2.63-3.72c0-.6-.54-1.15-1.61-1.68a2.67,2.67,0,0,1-1.71-2.46A2.61,2.61,0,0,1,312,385,3,3,0,0,1,314.17,384.23Z" transform="translate(-63.41 -372.3)"/><path class="cls-1" d="M325.85,429.62v-2.8l4.55-.48V394.89l-5.64-1.12V391l8.61-1h.17l1.23,1v3.24l-.06,1.82a23.42,23.42,0,0,1,2.83-2.09,32.27,32.27,0,0,1,3.69-2,29.29,29.29,0,0,1,4.06-1.52,14.43,14.43,0,0,1,3.94-.59,12.32,12.32,0,0,1,6,1.26A8.1,8.1,0,0,1,358.7,395a16.87,16.87,0,0,1,2.51-1.69,30.37,30.37,0,0,1,3.52-1.68,32.52,32.52,0,0,1,4-1.29,15.9,15.9,0,0,1,4-.53,13.74,13.74,0,0,1,5.52,1,7.78,7.78,0,0,1,3.47,3,13.42,13.42,0,0,1,1.81,5.11,45.87,45.87,0,0,1,.51,7.36v20.1l5.37.48v2.8H374.25v-2.8l4.89-.48V406.45a41.49,41.49,0,0,0-.32-5.44,10.93,10.93,0,0,0-1.25-3.95,6,6,0,0,0-2.63-2.41,10.55,10.55,0,0,0-4.48-.82,12.78,12.78,0,0,0-3,.38,21.18,21.18,0,0,0-3,1,23.86,23.86,0,0,0-2.68,1.32,21.56,21.56,0,0,0-2.14,1.4,29.12,29.12,0,0,1,.55,3.83c.11,1.39.17,2.93.17,4.61v20l5.4.48v2.8H350.22v-2.8l5.2-.45v-20a54.55,54.55,0,0,0-.24-5.48A10.24,10.24,0,0,0,354.1,397a5.33,5.33,0,0,0-2.41-2.31,9.75,9.75,0,0,0-4.23-.77,11.45,11.45,0,0,0-3.2.48,22.87,22.87,0,0,0-3.28,1.23,29.13,29.13,0,0,0-3.08,1.66,28,28,0,0,0-2.58,1.79v27.28l5.06.48v2.8Z" transform="translate(-63.41 -372.3)"/><path class="cls-1" d="M408.27,407.71c5,0,5.67-2.73,5.67-5.18a41.77,41.77,0,0,0-.56-5.88,40.8,40.8,0,0,1-.56-5.81c0-6.44,4.2-9.17,10.15-9.17h1.47v3.85h-1.26c-4.13,0-5.53,2.24-5.53,6a30.63,30.63,0,0,0,.49,5,32.67,32.67,0,0,1,.49,5.32c.07,4.48-1.89,6.72-5,7.56v.14c3.15.77,5.11,3.15,5,7.63a32,32,0,0,1-.49,5.32,31.48,31.48,0,0,0-.49,5c0,3.92,1.61,6.09,5.53,6.09h1.26v3.85H423c-5.81,0-10.15-2.52-10.15-9.59a39.84,39.84,0,0,1,.56-5.74,38.89,38.89,0,0,0,.56-5.67c0-2.17-.7-5.18-5.67-5.18Z" transform="translate(-63.41 -372.3)"/><path class="cls-1" d="M428.71,404.42a26.07,26.07,0,0,1,1.61-8.92,25.15,25.15,0,0,1,4.66-8,23.25,23.25,0,0,1,7.45-5.71,22.34,22.34,0,0,1,10-2.17,21.09,21.09,0,0,1,11.45,3,19.21,19.21,0,0,1,7.17,7.84l-6.16,4.13a12.92,12.92,0,0,0-2.45-3.78,12.56,12.56,0,0,0-3.18-2.45,13.25,13.25,0,0,0-3.54-1.29,17,17,0,0,0-3.57-.39,13.77,13.77,0,0,0-6.68,1.58,14.94,14.94,0,0,0-4.87,4.16,18.3,18.3,0,0,0-2.94,5.81,22.13,22.13,0,0,0-1,6.44,20.74,20.74,0,0,0,1.16,6.93,18.64,18.64,0,0,0,3.25,5.81,16.37,16.37,0,0,0,5,4,13.37,13.37,0,0,0,6.3,1.5,16.21,16.21,0,0,0,3.68-.45,13.5,13.5,0,0,0,3.64-1.47,15,15,0,0,0,3.18-2.56,13.09,13.09,0,0,0,2.45-3.71l6.51,3.71a15.51,15.51,0,0,1-3.32,4.94,21.69,21.69,0,0,1-4.8,3.6,23.68,23.68,0,0,1-5.67,2.24,24.12,24.12,0,0,1-6,.77,20.09,20.09,0,0,1-9.45-2.24,24.88,24.88,0,0,1-7.38-5.84,26.77,26.77,0,0,1-4.83-8.19A26.39,26.39,0,0,1,428.71,404.42Z" transform="translate(-63.41 -372.3)"/><path class="cls-1" d="M473.37,429.62l20-49.7h6.44l19.95,49.7h-8.33l-5.32-13.51H487l-5.18,13.51Zm23.24-40.95-8.26,21.63h16.24Z" transform="translate(-63.41 -372.3)"/><path class="cls-1" d="M567.59,429.62V393.85l-14.77,27.09h-4.34l-14.84-27.09v35.77H525.8v-49.7h8.4l16.45,30.38,16.45-30.38h8.4v49.7Z" transform="translate(-63.41 -372.3)"/><path class="cls-1" d="M620.79,422.69v6.93H586.7v-49.7h33.46v6.93H594.54V401h22.19v6.51H594.54v15.19Z" transform="translate(-63.41 -372.3)"/><path class="cls-1" d="M629.19,429.62v-49.7h21.63a13.82,13.82,0,0,1,6.19,1.4,15.63,15.63,0,0,1,4.87,3.68,17.26,17.26,0,0,1,3.18,5.18,15.83,15.83,0,0,1,1.16,5.91,16.45,16.45,0,0,1-.7,4.83,17.1,17.1,0,0,1-2,4.27,13.87,13.87,0,0,1-3.08,3.4,12.81,12.81,0,0,1-4,2.13l11.83,18.9h-8.89l-10.92-17.29H637v17.29ZM637,405.4h13.72a6.3,6.3,0,0,0,3-.73,7.13,7.13,0,0,0,2.35-2,10.38,10.38,0,0,0,1.54-3,11.31,11.31,0,0,0,.56-3.57,9.67,9.67,0,0,0-.66-3.57,10.46,10.46,0,0,0-1.75-2.94,8.35,8.35,0,0,0-2.53-2,6.4,6.4,0,0,0-3-.74H637Z" transform="translate(-63.41 -372.3)"/><path class="cls-1" d="M696,430a21.23,21.23,0,0,1-9.55-2.13,24,24,0,0,1-7.42-5.67,25.48,25.48,0,0,1-4.8-8.09,26.68,26.68,0,0,1-1.68-9.31,25.83,25.83,0,0,1,1.78-9.52,26.45,26.45,0,0,1,4.94-8.05,23.59,23.59,0,0,1,7.49-5.56,21.65,21.65,0,0,1,9.45-2.07,20.63,20.63,0,0,1,9.55,2.21,24.21,24.21,0,0,1,7.39,5.77,26.81,26.81,0,0,1,6.44,17.29,26.29,26.29,0,0,1-6.72,17.54,24.07,24.07,0,0,1-7.46,5.53A21.54,21.54,0,0,1,696,430Zm-15.47-25.2a21.63,21.63,0,0,0,1.08,6.79,18.55,18.55,0,0,0,3.12,5.81,15.53,15.53,0,0,0,4.9,4,13.68,13.68,0,0,0,6.44,1.5,13.46,13.46,0,0,0,6.54-1.57,15.28,15.28,0,0,0,4.9-4.17,19.2,19.2,0,0,0,3-5.81,21.11,21.11,0,0,0,1.05-6.58,20.71,20.71,0,0,0-1.12-6.82,18.55,18.55,0,0,0-3.15-5.74,15.54,15.54,0,0,0-4.9-4,14.26,14.26,0,0,0-12.91.07,15.73,15.73,0,0,0-4.91,4.09,18.24,18.24,0,0,0-3,5.78A21.39,21.39,0,0,0,680.5,404.77Z" transform="translate(-63.41 -372.3)"/><path class="cls-1" d="M735.59,394.62v35h-7.84v-49.7h6.16l28.42,35.84V380h7.91v49.63h-6.51Z" transform="translate(-63.41 -372.3)"/><path class="cls-1" d="M833.17,386.85H816.65v42.77h-7.84V386.85H792.22v-6.93h40.95Z" transform="translate(-63.41 -372.3)"/><path class="cls-1" d="M880.77,379.92v49.7h-7.91V407.71H847.8v21.91H840v-49.7h7.84v20.79h25.06V379.92Z" transform="translate(-63.41 -372.3)"/><path class="cls-1" d="M886.86,429.62l20-49.7h6.44l19.95,49.7h-8.33l-5.32-13.51H900.44l-5.18,13.51Zm23.24-40.95-8.26,21.63h16.24Z" transform="translate(-63.41 -372.3)"/><path class="cls-1" d="M939.29,429.62v-49.7h21.63a13.82,13.82,0,0,1,6.19,1.4A15.86,15.86,0,0,1,972,385a17.26,17.26,0,0,1,3.18,5.18,15.83,15.83,0,0,1,1.16,5.91,16.79,16.79,0,0,1-.7,4.83,17.1,17.1,0,0,1-2,4.27,13.87,13.87,0,0,1-3.08,3.4,13,13,0,0,1-4,2.13l11.83,18.9h-8.89l-10.92-17.29H947.13v17.29Zm7.84-24.22h13.72a6.3,6.3,0,0,0,3-.73,7.33,7.33,0,0,0,2.35-2,10.64,10.64,0,0,0,1.54-3,11.31,11.31,0,0,0,.56-3.57,9.48,9.48,0,0,0-.67-3.57,10,10,0,0,0-1.75-2.94,8.2,8.2,0,0,0-2.52-2,6.43,6.43,0,0,0-3-.74h-13.3Z" transform="translate(-63.41 -372.3)"/><path class="cls-1" d="M986.12,429.62v-49.7H1007a13.82,13.82,0,0,1,6.19,1.4A15.86,15.86,0,0,1,1018,385a17.26,17.26,0,0,1,3.18,5.18,15.83,15.83,0,0,1,1.16,5.91,17.33,17.33,0,0,1-4.13,11.24,14.9,14.9,0,0,1-4.73,3.64,13.61,13.61,0,0,1-6.12,1.36H994v17.29ZM994,405.4h12.95a6.51,6.51,0,0,0,3-.7,7.11,7.11,0,0,0,2.35-2,10,10,0,0,0,1.54-2.94,11.79,11.79,0,0,0,.56-3.71,10.7,10.7,0,0,0-.63-3.78,8.89,8.89,0,0,0-1.75-2.9,7.92,7.92,0,0,0-2.56-1.89,6.89,6.89,0,0,0-3-.67H994Z" transform="translate(-63.41 -372.3)"/><path class="cls-1" d="M1041.91,411.28c-5,0-5.67,3-5.67,5.18a38.89,38.89,0,0,0,.56,5.67,39.84,39.84,0,0,1,.56,5.74c0,7.07-4.41,9.59-10.15,9.59h-1.47v-3.85h1.19c3.92-.07,5.6-2.17,5.6-6.09a42.29,42.29,0,0,0-.49-5,31.78,31.78,0,0,1-.56-5.32c0-4.48,2-6.86,5-7.63v-.14c-3.08-.84-5-3.08-5-7.56a32.59,32.59,0,0,1,.56-5.32,41.16,41.16,0,0,0,.49-5c0-3.78-1.47-6-5.53-6h-1.26v-3.85h1.4c5.95,0,10.22,2.73,10.22,9.17a40.8,40.8,0,0,1-.56,5.81,41.77,41.77,0,0,0-.56,5.88c0,2.45.7,5.18,5.67,5.18Z" transform="translate(-63.41 -372.3)"/></svg>